<?xml version="1.0" ?><!DOCTYPE svg  PUBLIC '-//W3C//DTD SVG 1.1//EN'  'http://www.w3.org/Graphics/SVG/1.1/DTD/svg11.dtd'><svg enable-background="new 0 0 128 128" height="128px" id="Layer_1" version="1.1" viewBox="0 0 128 128" width="128px" xml:space="preserve" xmlns="http://www.w3.org/2000/svg" xmlns:xlink="http://www.w3.org/1999/xlink"><g><path d="M91.541,74.102h-7.666c-1.104,0-2-0.895-2-2c0-1.104,0.896-2,2-2h7.666c9.972,0,18.084-8.114,18.084-18.087   c0-9.972-8.112-18.085-18.084-18.085c-0.802,0-1.673,0.072-2.663,0.22l-1.428,0.214l-0.652-1.288   c-4.378-8.646-13.107-14.019-22.78-14.019c-12.613,0-23.472,9.402-25.259,21.87l-0.334,2.332l-2.247-0.709   c-1.374-0.434-2.807-0.653-4.256-0.653c-7.776,0-14.104,6.325-14.104,14.101c0,7.777,6.327,14.105,14.104,14.105   c1.104,0,2,0.896,2,2c0,1.105-0.896,2-2,2c-9.982,0-18.104-8.121-18.104-18.105c0-9.98,8.121-18.101,18.104-18.101   c1.102,0,2.196,0.1,3.272,0.296c2.952-13.333,14.974-23.136,28.823-23.136c10.716,0,20.43,5.698,25.68,14.964   c0.645-0.061,1.255-0.091,1.844-0.091c12.177,0,22.084,9.907,22.084,22.085C113.625,64.194,103.718,74.102,91.541,74.102z"/><path d="M61.355,71.984" fill="none" stroke="#000000" stroke-linecap="round" stroke-miterlimit="10" stroke-width="4"/><path d="M42.823,99.219c-0.387,0-0.776-0.111-1.121-0.344c-0.914-0.621-1.152-1.865-0.532-2.779l23.187-34.185   c0.621-0.913,1.864-1.151,2.778-0.532c0.914,0.62,1.152,1.864,0.532,2.778L44.48,98.342C44.094,98.912,43.464,99.219,42.823,99.219   z"/><path d="M68.27,82.127c-0.379,0-0.762-0.107-1.101-0.332c-0.922-0.609-1.175-1.85-0.565-2.771l11.299-17.092   c0.607-0.922,1.851-1.175,2.771-0.565c0.922,0.608,1.175,1.85,0.565,2.771L69.939,81.229C69.556,81.811,68.919,82.127,68.27,82.127   z"/><path d="M38.098,86.148c-0.387,0-0.776-0.111-1.121-0.346c-0.914-0.619-1.152-1.863-0.532-2.777l14.432-21.278   c0.62-0.914,1.863-1.151,2.778-0.532c0.914,0.62,1.152,1.864,0.532,2.778L39.755,85.271C39.368,85.842,38.738,86.148,38.098,86.148   z"/></g><g><path d="M55.499,112.965c-0.384,0-0.771-0.109-1.114-0.34c-0.917-0.617-1.16-1.859-0.543-2.775l8.741-12.994h-7.601l11.613-17.82   c0.604-0.926,1.843-1.188,2.768-0.584c0.926,0.604,1.187,1.842,0.584,2.768l-7.584,11.637h7.731L57.16,112.082   C56.774,112.656,56.143,112.965,55.499,112.965z"/></g></svg>