<?xml version="1.0" encoding="UTF-8" standalone="no"?>
<svg
   xmlns:dc="http://purl.org/dc/elements/1.1/"
   xmlns:cc="http://creativecommons.org/ns#"
   xmlns:rdf="http://www.w3.org/1999/02/22-rdf-syntax-ns#"
   xmlns:svg="http://www.w3.org/2000/svg"
   xmlns="http://www.w3.org/2000/svg"
   xmlns:sodipodi="http://sodipodi.sourceforge.net/DTD/sodipodi-0.dtd"
   xmlns:inkscape="http://www.inkscape.org/namespaces/inkscape"
   enable-background="new 0 0 32 32"
   height="32px"
   id="svg2"
   version="1.1"
   viewBox="0 0 32 32"
   width="32px"
   xml:space="preserve"
   inkscape:version="0.48.2 r9819"
   sodipodi:docname="server.svg"><metadata
     id="metadata3063"><rdf:RDF><cc:Work
         rdf:about=""><dc:format>image/svg+xml</dc:format><dc:type
           rdf:resource="http://purl.org/dc/dcmitype/StillImage" /></cc:Work></rdf:RDF></metadata><defs
     id="defs3061" /><sodipodi:namedview
     pagecolor="#ffffff"
     bordercolor="#666666"
     borderopacity="1"
     objecttolerance="10"
     gridtolerance="10"
     guidetolerance="10"
     inkscape:pageopacity="0"
     inkscape:pageshadow="2"
     inkscape:window-width="1049"
     inkscape:window-height="728"
     id="namedview3059"
     showgrid="false"
     inkscape:zoom="14.78125"
     inkscape:cx="3.9577167"
     inkscape:cy="16"
     inkscape:window-x="0"
     inkscape:window-y="0"
     inkscape:window-maximized="0"
     inkscape:current-layer="svg2" /><g
     id="background"><rect
       fill="none"
       height="32"
       width="32"
       id="rect3054" /></g><g
     id="server"><path
       d="M30,10V2H2v8h2v2H2v8h2v2H2v8h28v-8h-2v-2h2v-8h-2v-2H30z M4,6h4v2H4V6z M4,16h4v2H4V16z M8,28H4v-2h4V28z M26,22H6v-2h20   V22z M26,12H6v-2h20V12z"
       id="path3057" /></g><path
     style="fill:#333333;stroke:#000000;stroke-width:0.06765328000000000;fill-opacity:1"
     d="m 2.0160677,25.978858 0,-3.957716 1.0147991,0 1.0147992,0 0,-1.0148 0,-1.014799 -1.0147992,0 -1.0147991,0 0,-3.991543 0,-3.991543 1.0147991,0 1.0147992,0 0,-1.014799 0,-1.0147996 -1.0147992,0 -1.0147991,0 0,-3.9577168 0,-3.9577167 13.9704013,0 13.970402,0 0,3.9577167 0,3.9577168 -0.980972,0 -0.980973,0 0,1.0147996 0,1.014799 0.980973,0 0.980972,0 0,3.991543 0,3.991543 -0.980972,0 -0.980973,0 0,1.014799 0,1.0148 0.980973,0 0.980972,0 0,3.957716 0,3.957717 -13.970402,0 -13.9704013,0 0,-3.957717 z m 6.0211416,1.0148 0,-1.048626 -2.0295983,0 -2.0295983,0 0,1.048626 0,1.048625 2.0295983,0 2.0295983,0 0,-1.048625 z m 17.9957717,-5.987316 0,-1.014799 -10.046512,0 -10.0465113,0 0,1.014799 0,1.0148 10.0465113,0 10.046512,0 0,-1.0148 z m -17.9957717,-3.991543 0,-1.014799 -2.0295983,0 -2.0295983,0 0,1.014799 0,1.014799 2.0295983,0 2.0295983,0 0,-1.014799 z m 17.9957717,-6.021141 0,-1.0147996 -10.046512,0 -10.0465113,0 0,1.0147996 0,1.014799 10.0465113,0 10.046512,0 0,-1.014799 z M 8.0372093,7.0021142 l 0,-1.0147992 -2.0295983,0 -2.0295983,0 0,1.0147992 0,1.0147991 2.0295983,0 2.0295983,0 0,-1.0147991 z"
     id="path3065"
     inkscape:connector-curvature="0" /></svg>